<?xml version="1.0" encoding="UTF-8"?>
<svg id="Layer_2" data-name="Layer 2" xmlns="http://www.w3.org/2000/svg" viewBox="0 0 267.91 195.46">
  <defs>
    <style>
      .cls-1 {
        fill: #222629;
      }
    </style>
  </defs>
  <g id="Layer_2-2" data-name="Layer 2">
    <g>
      <path class="cls-1" d="m250.67,51.58c-2.92,2.65-6.02,5.05-9,7.58-4.05,3.41-7.98,6.89-11.97,10.36-4.24,3.66-8.49,7.39-12.92,10.8l-.06.06-11.34,9.54c-1.39,1.27-2.78,2.53-4.24,3.73l-4.88,4.23,27.24,23.05,4.62,3.92c.76.63,1.45,1.33,2.15,1.96l37.63,31.77v-.02s0-121.51,0-121.51l-17.1,14.4-.13.13Z"/>
      <path class="cls-1" d="m267.87,176.95l-82.6-69.91-3.55,2.97c-.89.76-1.77,1.45-2.66,2.21l-.13.13-30.15,25.64c-7.35,6.26-14.38,9.92-23.5,4.74-.82-.5-1.77-1.26-2.53-1.89-1.64-1.26-3.23-2.52-4.81-3.85-4.43-3.6-8.87-7.33-13.24-10.99-6.21-5.24-12.42-10.42-18.56-15.85l-3.61-3.22-3.67,3.22-1.9,1.64L8.93,169.57c-1.71,1.45-3.55,2.78-5.32,4.17l-1.77,1.52-1.84,1.64v7.89l.51,1.14c.76,1.64,1.71,3.15,2.91,4.48,2.34,2.65,5.83,5.05,9.5,5.05h242.06c3.74,0,7.23-2.65,9.57-5.3.95-1.07,1.83-2.4,2.53-3.6l.82-1.33h-.03v-8.28Z"/>
      <path class="cls-1" d="m22.04,140.09c7.53-6.45,15.07-12.89,22.61-19.33l18.12-15.35,3.93-3.35,3.86-3.22-2.91-4.17-.57-.69-.19-.19-.25-.19c-1.46-1.26-2.91-2.59-4.37-3.85L0,36.95h0v121.77l9.12-7.7,12.92-10.93Z"/>
      <path class="cls-1" d="m264.49,5.18c-2.28-2.59-6.4-5.18-9.88-5.18H13.32C8.45,0,4.01,3.85,1.54,7.7c-.38.57-.7,1.14-.95,1.71L.02,10.61v7.83l1.96,1.71.51.38c1.33,1.26,2.79,2.4,4.18,3.6l8.42,7.07,108.32,91.95c3.74,3.16,5.45,5.18,10.96,5.18,3.93,0,7.16-2.33,9.88-4.86l116.81-99.15c1.58-1.39,3.36-2.59,4.94-3.98l1.9-1.64h.01v-8.09l-.57-1.14c-.76-1.51-1.71-3.03-2.85-4.29Z"/>
    </g>
  </g>
</svg>