<?xml version="1.0" encoding="UTF-8"?>
<svg id="Layer_2" data-name="Layer 2" xmlns="http://www.w3.org/2000/svg" viewBox="0 0 270 263.37">
  <defs>
    <style>
      .cls-1 {
        fill: #222629;
      }
    </style>
  </defs>
  <g id="Layer_1-2" data-name="Layer 1">
    <path class="cls-1" d="m135.01,0C60.45,0,0,60.45,0,135.01c0,59.65,38.68,110.25,92.33,128.1,6.75,1.24,9.22-2.94,9.22-6.5,0-3.21-.12-13.86-.19-25.13-37.55,8.16-45.48-15.92-45.48-15.92-6.15-15.6-14.99-19.75-14.99-19.75-12.27-8.38.93-8.21.93-8.21,13.55.94,20.7,13.91,20.7,13.91,12.05,20.64,31.61,14.67,39.29,11.2,1.23-8.7,4.72-14.67,8.57-18.03-29.96-3.41-61.49-14.99-61.49-66.73,0-14.75,5.27-26.77,13.89-36.23-1.37-3.43-6.03-17.16,1.34-35.74,0,0,11.32-3.62,37.12,13.84,10.76-3.01,22.31-4.49,33.78-4.54,11.47.05,23.02,1.55,33.8,4.56,25.75-17.48,37.1-13.84,37.1-13.84,7.38,18.59,2.73,32.31,1.35,35.73,8.65,9.45,13.87,21.48,13.87,36.23,0,51.87-31.58,63.29-61.65,66.63,4.86,4.19,9.16,12.39,9.16,24.98,0,18.05-.18,32.6-.18,37.05,0,3.6,2.45,7.8,9.29,6.47,53.61-17.88,92.25-68.47,92.25-128.1C270,60.47,209.55.01,134.99.01h.01Z"/>
  </g>
</svg>