<?xml version="1.0" encoding="UTF-8"?>
<svg id="Layer_2" data-name="Layer 2" xmlns="http://www.w3.org/2000/svg" viewBox="0 0 360.27 460.54">
  <defs>
    <style>
      .cls-1 {
        fill: #fff;
      }

      .cls-2 {
        fill: #512775;
      }

      .cls-3 {
        fill: #8c70a2;
      }
    </style>
  </defs>
  <g id="Layer_1-2" data-name="Layer 1">
    <path class="cls-2" d="m319.05,0H120.54v79.73c0,20.15-16.34,36.49-36.49,36.49H0v303.11c0,22.76,18.45,41.22,41.22,41.22h277.84c22.76,0,41.22-18.45,41.22-41.22V41.22c0-22.76-18.45-41.22-41.22-41.22Z"/>
    <path class="cls-3" d="m120.54,79.73V0L0,116.22h84.05c20.15,0,36.49-16.34,36.49-36.49Z"/>
    <path class="cls-1" d="m10,145.14h340.27v275.54c0,16.33-13.26,29.59-29.59,29.59H39.59c-16.33,0-29.59-13.26-29.59-29.59V145.14h0Z"/>
    <path class="cls-1" d="m191.29,51.79c-6.17-6.52-14.37-7.4-22.43-8.25-10.27-1.09-20.11,7.75-20.37,18.19-.15,6.01-1.25,12.23,2.01,17.9,5,8.69,15.14,13,25.33,10.5,1.44-.35,2.89-.45,4.3-.81,2.76-.69,4.41-1.9,4.37-5.42-.13-10.45.08-10.35-10.7-10.57-1.79-.04-4.95,2.09-5.41-2.07-.36-3.26.03-5.26,4.3-4.9,5.29.45,10.65.23,15.98.06,2.63-.08,3.89.39,3.77,3.45-.23,6.15-.08,12.32-.06,18.48,0,1.68.04,3.19-1.9,4.1-11.56,5.36-23.3,7.55-35.39,1.94-7.4-3.44-11.8-9.22-14.01-17.26-2.93-10.63-1.72-20.34,4.32-29.45,4.04-6.09,10.07-8.83,17.12-10.29,8.71-1.81,16.83-.19,24.97,2.64,3.64,1.26,5.78,3.1,4.91,7.29-.25,1.23-.04,2.55-.04,3.83-.35.22-.71.44-1.06.66Z"/>
    <path class="cls-1" d="m248.53,83.71c5.48,2.12,10.09,5.29,15.63,6.17,6.23.99,12.32,1.34,17.9-2.62,3.37-2.39,3.88-5.72,3.19-9.22-.68-3.42-3.57-4.97-6.74-5.64-5.2-1.1-10.51-1.78-15.66-3.05-4.41-1.09-8.72-2.74-11.41-6.83-7.96-12.1,1.76-22.77,11.32-25.05,7.87-1.88,15.49.01,23.19,1.21,6.31.98,5.75,5.38,5.14,10.55-5.5-3.07-11.37-4.37-17.31-5.57-6.37-1.28-13.98,1.45-16.22,6.15-1.72,3.6-.31,7.79,3.21,9.84,5.65,3.29,12.19,3.12,18.27,4.75,3.48.93,6.78,2.04,9.8,4.04,7.25,4.82,6.2,20.09-3.32,25.03-11.63,6.04-23.18,5.19-34.77.08-4.99-2.2-.93-6.56-2.21-9.84Z"/>
    <path class="cls-1" d="m206.33,66.87c0-8.65.13-17.31-.07-25.96-.07-3.01,1.08-3.59,3.75-3.49,2.53.09,4.31-.1,4.25,3.54-.22,14.81,0,29.62-.16,44.43-.04,3.24.79,4.26,4.1,4.15,7.31-.25,14.64.05,21.96-.15,2.81-.07,3.3,1.05,3.23,3.49-.06,2.24-.09,3.67-3.09,3.62-10.31-.18-20.64-.19-30.95,0-3.03.05-3.07-1.46-3.05-3.66.06-8.65.03-17.31.02-25.96Z"/>
    <path class="cls-1" d="m314.13,63.73c0,7.32.17,14.65-.08,21.96-.11,3.17.91,3.91,3.93,3.83,7.32-.21,14.65.09,21.96-.14,3.14-.1,3.38,1.26,3.44,3.82.06,2.71-.92,3.31-3.43,3.28-10.15-.12-20.3-.15-30.45.01-2.79.05-3.26-1.04-3.25-3.48.08-17.47.13-34.95-.03-52.42-.03-3.47,1.86-3.07,4.07-3.14,2.44-.09,4.02.07,3.92,3.32-.23,7.65-.08,15.31-.08,22.96Z"/>
    <path class="cls-2" d="m200.62,218.4c10.59-1.08,16.01,7.94,13.07,17.21-5.54,17.46-11,34.95-16.58,52.39-7.24,22.61-14.54,45.2-21.85,67.79-1.9,5.88-3.89,11.74-5.94,17.58-2.56,7.28-10.37,11.33-17.48,8.69-5.14-1.91-10.06-9.47-7.72-16.57,5.19-15.74,10.05-31.6,15.21-47.36,9.14-27.92,18.01-55.94,27.02-83.91.89-2.77,1.96-5.48,2.92-8.24,1.92-5.52,5.58-8.37,11.36-7.59Z"/>
    <path class="cls-2" d="m95.59,300.52c14.53,6.86,28.27,13.35,42.01,19.82,3.09,1.46,5.46,3.58,6.76,6.82,2.11,5.25.99,10.03-2.53,14.16-3.88,4.56-9.3,5.31-14.41,3.39-7.68-2.88-15.01-6.68-22.46-10.16-15.14-7.05-30.09-14.55-45.45-21.06-7.97-3.38-11.09-14.98-5.05-22.39,2.12-2.6,5.49-3.37,8.3-4.73,20.42-9.86,40.84-19.73,61.59-28.86,7.69-3.38,13.47-2.77,18.21,3.31,4.82,6.19,2.34,16.22-4.64,19.45-13.85,6.4-27.54,13.14-42.33,20.24Z"/>
    <path class="cls-2" d="m226.85,255.36c5.87.4,9.53,3.42,14.13,5.5,19.7,8.91,39.19,18.31,58.75,27.53,4.96,2.34,7.68,6.52,7.45,11.72-.23,5.19-1.91,9.98-7.5,12.57-18.72,8.67-37.18,17.91-56.06,26.22-4.9,2.16-9.73,4.61-14.73,6.64-6.09,2.47-14.98-4.44-15.55-10.2-.78-7.85,1.39-12.42,8.54-15.85,6.79-3.25,13.83-6,20.66-9.19,5.66-2.64,11.19-5.58,16.72-8.48.72-.38,2.29-.34,1.87-1.76-.19-.66-1.02-1.3-1.71-1.61-11.55-5.16-23.19-10.14-34.67-15.45-3.71-1.71-7.55-3.63-9.78-7.39-2.53-4.28-3.15-8.71-.54-13.25,2.69-4.69,5.23-7.01,12.41-7Z"/>
  </g>
</svg>