<?xml version="1.0" encoding="UTF-8"?>
<svg id="Layer_2" data-name="Layer 2" xmlns="http://www.w3.org/2000/svg" viewBox="0 0 302.08 399.95">
  <defs>
    <style>
      .cls-1 {
        fill: #8bcbb8;
      }
    </style>
  </defs>
  <g id="Layer_1-2" data-name="Layer 1">
    <g>
      <path class="cls-1" d="m301.92,38.67c0-.93-.82-10.31-1.09-11.03-6.75-18.52-19.36-26.53-37.76-27.54-20.06-1.11-38.77,17.66-38.15,37.07.73,22.86.54,45.78-.68,68.65-.08,1.51-1.81,9.54-2.24,12.19-2.89,8.73-7.39,16.48-13.88,23.03-.63,0-.96.33-1.02.94-10.81,8.64-23.23,12.78-36.97,13.23-.67,0-1.33,0-2,0-16.25.12-32.47-.69-48.76.61-16.48,1.32-31.9,5.53-46.82,12.24-10.48,4.72-19.86,11.02-28.65,18.52-11.24,9.59-25.48,27.45-29.91,36.25-7.38,14.66-13.38,29.58-13.66,45.91-.54,31.09-.07,62.2-.06,93.31,0,3.85,1.72,6.16,5.46,6.83,3.78.68,6.82-.31,8.39-4.21,1.14-2.83,1.26-5.73.85-8.69-.1-6.34-.68-32.08-.61-33.4.61-4.47,6.13-5.68,6.78-5.81,5.08-.29,8.45,1.79,9.63,6.86l.18,2.62c-.53,7.13-.8,14.27.28,21.36.54,3.54,2.52,5.47,6.39,5.4,4.98-.09,8.36-2.89,8.47-8.63.23-12.12-.03-24.26-.1-36.39.11-.29.17-.6.18-.91.94-1.75.06-2.06,3.42-3.81,1.38-.55,2.54-.4,3.54-.45,2.71-.08,3.7.42,5.03,1.16,2.3,2.65,3.38,5.62,3.19,9.23-.21,3.89.08,7.8.15,11.71v10.11c.01,2.62.02,5.25.03,7.87.14,6.69.29,13.38.43,20.08-1.33,4.93.26,9.02,4.42,11.57,2.8,1.71,5.73-.02,8.14-1.86,2.32-1.77,2.63-4.3,2.62-7.07-.05-28.89-.01-57.79-.05-86.68,0-3.78.92-7.35,1.89-10.93.06-.62,1.87-5.29,2.61-7.05,3.09-7.36,8.08-13.1,13.91-18.11,2.85-2.45,6.12-4.35,9.63-5.71,5.17-2,13.2-4.89,17.99-5.32l10-.95c4.51-.07,8.99-.14,13.5-.21,10.36.63,20.72.84,31.08.19,20.43-1.32,35.3-5.89,42.31-10.48l3.26.73c1.68,2.95,1.84,6.2,1.84,9.5-.01,38.65.11,77.31-.1,115.96-.05,8.83,2.12,16.57,7.17,23.8,9.81,14.05,33.58,20.51,47.78,12.04,14.17-8.46,22.17-21,22.12-37.99-.14-44.98-.17-251.6-.16-305.73ZM5.86,325.77c.09.01.17.04.25.05-.09-.01-.17-.04-.25-.05Z"/>
      <path class="cls-1" d="m.25,115.98c-.21,15.54,6.99,26.46,19.96,33.97,13.66,7.91,31.47,4.54,43.05-4.6,7.91-6.25,14.61-16.57,13.8-27.52.18-2.68-.11-60.76-.11-77.76.66-8.09-1.62-15.59-5.79-22.24C61.54,2.47,44.49-2.59,27.96,1.21,10.48,5.22-.7,23.01.03,38.15c1.26,25.92.56,51.88.22,77.83Z"/>
      <path class="cls-1" d="m38.79,362.97c-4.85-.13-8.52,2.96-8.65,7.28-.09,2.93,4.5,7.5,7.7,7.69,3.33.19,8.18-4.37,8.28-7.79.1-3.56-3.49-7.07-7.33-7.18Z"/>
      <path class="cls-1" d="m69.85,385.97c-4.57-.14-8.4,2.78-8.71,6.62-.28,3.53,3.47,7.22,7.49,7.35,4.5.15,8.41-3.02,8.49-6.88.07-3.53-3.46-6.98-7.27-7.09Z"/>
    </g>
  </g>
</svg>