<?xml version="1.0" encoding="UTF-8"?>
<svg id="Layer_2" data-name="Layer 2" xmlns="http://www.w3.org/2000/svg" viewBox="0 0 270 242.83">
  <defs>
    <style>
      .cls-1 {
        fill: #222629;
      }
    </style>
  </defs>
  <g id="Layer_1-2" data-name="Layer 1">
    <path class="cls-1" d="m35.2,1.5C23.42,8.49.22,35.14,0,42.13v11.58c0,14.67,13.71,27.56,26.15,27.56,14.95,0,27.4-12.39,27.4-27.09,0,14.7,12.03,27.09,26.98,27.09s26.59-12.39,26.59-27.09c0,14.7,12.79,27.09,27.74,27.09h.27c14.95,0,27.74-12.39,27.74-27.09,0,14.7,11.64,27.09,26.59,27.09s26.98-12.39,26.98-27.09c0,14.7,12.45,27.09,27.4,27.09,12.45,0,26.15-12.89,26.15-27.56v-11.58c-.22-6.99-23.42-33.65-35.2-40.63C198.2.21,172.82-.01,135.01,0,97.2.01,45.64.6,35.22,1.5h-.02Zm71.74,72.86c-1.5,2.59-3.24,4.81-5.25,6.76h-.01c-5.65,5.52-13.38,8.94-21.9,8.94h-.03c-8.54,0-16.28-3.41-21.92-8.94h0c-2.05-2-3.6-4.14-5.02-6.64h-.01c-1.42,2.5-3.4,4.63-5.46,6.64-5.65,5.52-13.39,8.93-21.92,8.93h-.03c-1.02,0-2.09-.28-2.96-.58-1.2,12.51-1.71,24.47-1.89,33.18v.04c-.02,4.43-.04,8.07-.07,13.13.24,26.26-2.6,85.09,11.58,99.54,21.97,5.12,62.39,7.46,102.94,7.47h.01c40.55-.01,80.97-2.35,102.94-7.47,14.17-14.46,11.34-73.3,11.58-99.54-.02-5.06-.04-8.7-.07-13.13v-.04c-.18-8.72-.69-20.68-1.89-33.18-.87.29-1.93.58-2.96.58h-.02c-8.54,0-16.28-3.41-21.92-8.94h.01c-2.05-2-4.03-4.14-5.46-6.64h-.01c-1.43,2.5-2.98,4.63-5.02,6.64-5.65,5.52-13.39,8.94-21.91,8.94h-.03c-8.53,0-16.25-3.42-21.9-8.94-2.01-1.96-3.76-4.18-5.19-6.63l-.08-.15c-1.48,2.59-3.22,4.81-5.21,6.77h0c-5.65,5.52-13.39,8.94-21.92,8.94h-.03c-.29,0-.6-.01-.89-.02h-.01c-.29.01-.6.02-.9.02h-.03c-8.54,0-16.28-3.41-21.92-8.94h.01c-2-1.96-3.72-4.18-5.13-6.63l-.08-.15v.02Zm-22.54,29.15h0s.01.01.01.01c8.93.02,16.85,0,26.68,10.72,7.73-.81,15.82-1.21,23.9-1.2h.01c8.09-.01,16.16.39,23.9,1.2,9.82-10.72,17.75-10.71,26.68-10.72h.01c4.22-.01,21.09-.01,32.85,33l12.62,45.29c9.36,33.69-2.99,34.52-18.4,34.55-22.85-.85-35.5-17.45-35.5-34.04-12.64,2.07-27.4,3.1-42.16,3.1h-.01c-14.76,0-29.52-1.03-42.16-3.1,0,16.59-12.66,33.18-35.5,34.04-15.41-.03-27.76-.85-18.4-34.55l12.63-45.29c11.76-33.02,28.63-33.02,32.85-33.02h-.01Zm50.6,25.95h0s-24.05,22.1-28.38,29.96l15.74-.63v13.72c0,.64,6.31.38,12.63.09h.01c6.32.29,12.63.55,12.63-.09v-13.72l15.74.63c-4.32-7.85-28.38-29.94-28.38-29.94h0s.01-.01.01-.01Z"/>
  </g>
</svg>