<?xml version="1.0" encoding="UTF-8"?>
<svg id="Layer_2" data-name="Layer 2" xmlns="http://www.w3.org/2000/svg" viewBox="0 0 529.88 592.78">
  <defs>
    <style>
      .cls-1 {
        fill: #f5cb4f;
      }

      .cls-2 {
        fill: #e89d38;
      }

      .cls-3 {
        fill: #f7f7f7;
      }
    </style>
  </defs>
  <g id="Layer_1-2" data-name="Layer 1">
    <polygon class="cls-2" points="0 0 529.88 0 480.72 542.44 265.94 592.78 47.1 542.44 0 0"/>
    <polygon class="cls-1" points="265.94 21.92 265.94 561.92 453.11 517.26 498.59 21.92 265.94 21.92"/>
    <polygon class="cls-3" points="173.77 90.14 238.74 90.14 238.74 517.26 99.88 485.97 92.57 397.89 146.17 414.14 146.17 425.07 174.59 432 173.77 90.14"/>
    <polygon class="cls-3" points="293.95 90.14 453.11 90.14 446.64 158.42 359.73 158.35 357.29 259.66 437.55 254.23 415.76 483.97 288.27 517.26 288.27 453.11 349.98 436.87 358.11 336.18 288.27 339.99 293.95 90.14"/>
  </g>
</svg>