<?xml version="1.0" encoding="UTF-8"?>
<svg id="Layer_2" data-name="Layer 2" xmlns="http://www.w3.org/2000/svg" viewBox="0 0 267.54 267.61">
  <defs>
    <style>
      .cls-1 {
        fill: #222629;
      }
    </style>
  </defs>
  <g id="Layer_2-2" data-name="Layer 2">
    <g>
      <path class="cls-1" d="m267.52,155.92c0-7.78-.48-15.52-2.17-23.13-3.34-15-9.94-28.02-22.75-37.25-2.4-1.73-4.88-3.34-7.5-4.72-3.85-2.04-7.94-3.51-12.14-4.64-2.83-.76-5.72-1.21-8.63-1.64-2.68-.4-5.36-.59-8.05-.77-5.96-.4-11.9.07-17.72,1.34-12.63,2.75-23.41,8.84-32.31,18.26-2.72,2.88-5.11,5.99-7.41,9.61h0s0-1.03,0-1.03c0-7.23-.02-14.46.02-21.7,0-.91-.17-1.18-1.14-1.18-16.82.04-33.63.03-50.45.03-.95,0-1.42.47-1.42,1.4v175.17c0,.6-.13,1.3.13,1.77.12.22,1.02,0,1.57,0,16.64,0,33.27-.01,49.91.02,1.07,0,1.41-.21,1.41-1.36-.04-29.57-.03-59.14-.03-88.71,0-5.04-.08-10.06.86-15.06.66-3.5,1.54-6.91,2.93-10.16,1.97-4.6,4.79-8.6,8.74-11.77,2.6-2.09,5.47-3.6,8.6-4.67,4.36-1.48,8.84-1.89,13.42-1.76,1.94.05,3.89.11,5.78.49,5.7,1.14,10.67,3.58,14.53,8.09,2.4,2.8,4.12,5.96,5.42,9.37,2.54,6.67,3.36,13.66,3.38,20.7.09,31.24.05,62.49.03,93.73,0,.93.03,1.57,1.22,1.11.28-.11.64-.02.96-.02,17.14,0,34.27,0,51.41.02,1.05,0,1.42-.18,1.42-1.35-.04-36.73-.04-73.46-.02-110.19Z"/>
      <path class="cls-1" d="m59.29,89.09c-17.6.03-35.19.03-52.79,0-1,0-1.21.28-1.21,1.23.02,58.63.02,117.26,0,175.89,0,1.06.3,1.27,1.3,1.26,17.56-.03,35.12-.04,52.68,0,1.12,0,1.31-.32,1.31-1.35-.03-29.28-.02-58.56-.02-87.84h0c0-29.31,0-58.63.03-87.94,0-1.06-.29-1.26-1.29-1.25Z"/>
      <path class="cls-1" d="m55.58,9.46C48.21,2.17,39.25-.78,28.99.18,14.46,1.54-.03,14.4,0,32.86h.01c.02,18.17,14.6,32.93,32.63,32.89,8.91-.02,16.65-3.19,22.94-9.51,7.41-7.45,10.5-16.54,9.48-26.98-.76-7.73-3.97-14.36-9.48-19.8Z"/>
    </g>
  </g>
</svg>