<?xml version="1.0" encoding="UTF-8"?>
<svg id="Layer_2" data-name="Layer 2" xmlns="http://www.w3.org/2000/svg" viewBox="0 0 178.27 152.36">
  <defs>
    <style>
      .cls-1 {
        fill: #ff305a;
      }
    </style>
  </defs>
  <g id="Layer_1-2" data-name="Layer 1">
    <path class="cls-1" d="m.02,51.24C.02,43.19.04,35.15,0,27.1c0-1,.29-1.22,1.24-1.21,7.8.04,15.6,0,23.4.05,1.03,0,1.31-.26,1.3-1.3-.05-7.8,0-15.6-.05-23.39,0-.95.2-1.24,1.21-1.24C43.24.04,59.37.04,75.51,0c1.03,0,1.2.33,1.2,1.26-.03,7.8,0,15.6-.04,23.39,0,1.06.31,1.29,1.32,1.28,7.47-.04,14.93-.04,22.4,0,1.01,0,1.22-.3,1.22-1.25-.04-7.8,0-15.6-.05-23.39,0-1.04.26-1.29,1.29-1.29,16.05.04,32.11.04,48.16,0,1.05,0,1.39.19,1.38,1.33-.06,7.67,0,15.35-.06,23.02,0,1.19.2,1.6,1.52,1.59,7.67-.08,15.35,0,23.02-.07,1.19,0,1.39.36,1.39,1.45-.03,15.89-.02,31.77-.02,47.66,0,1.01.2,1.62-1.51,1.61-2.83,0-5.69.03-8.53.07-4.85.06-9.71.05-14.56,0-1.01-.01-1.32.2-1.32,1.27.05,7.76,0,15.51.06,23.27,0,1.19-.36,1.4-1.44,1.39-7.43-.05-14.85,0-22.28-.05-.99,0-1.23.27-1.22,1.24.04,7.47,0,14.93.05,22.4,0,1.02-.22,1.31-1.28,1.3-7.63-.05-15.27-.03-22.9-.03q-1.74,0-1.74,1.67c0,7.34-.02,14.68.03,22.03,0,1.01-.29,1.21-1.24,1.21-7.51-.04-15.02-.04-22.53,0-.91,0-1.18-.2-1.17-1.15.04-7.51.02-15.02.02-22.52,0-1.41-.08-1.47-1.52-1.25-.28.04-.58.01-.87.01-7.43,0-14.85-.02-22.28.02-.94,0-1.25-.2-1.24-1.21.05-7.51,0-15.02.04-22.52,0-1.14-.36-1.54-1.48-1.22-.27.08-.58.04-.87.04-7.14,0-14.27-.02-21.41.03-1.06,0-1.18-.37-1.17-1.27.03-7.8.02-15.6.02-23.39,0-1.43-.08-1.48-1.52-1.26-.28.04-.58.02-.87.02-7.43,0-14.85-.03-22.28.03-1.11,0-1.25-.36-1.24-1.33.04-8.05.02-16.09.02-24.14Z"/>
  </g>
</svg>